<svg width="40" height="40" viewBox="0 0 40 40" fill="none" xmlns="http://www.w3.org/2000/svg">
<path d="M0 10C0 4.47715 4.47715 0 10 0H30C35.5228 0 40 4.47715 40 10V30C40 35.5228 35.5228 40 30 40H10C4.47715 40 0 35.5228 0 30V10Z" fill="url(#paint0_linear_130_4572)"/>
<path d="M0 10C0 4.47715 4.47715 0 10 0H30C35.5228 0 40 4.47715 40 10V30C40 35.5228 35.5228 40 30 40H10C4.47715 40 0 35.5228 0 30V10Z" fill="#FFA31F"/>
<rect x="22" y="27.7998" width="12" height="1.6" rx="0.8" transform="rotate(180 22 27.7998)" fill="white"/>
<rect x="27" y="21.2002" width="17" height="1.6" rx="0.8" transform="rotate(180 27 21.2002)" fill="white"/>
<rect x="30" y="14.5996" width="20" height="1.6" rx="0.8" transform="rotate(180 30 14.5996)" fill="white"/>
<defs>
<linearGradient id="paint0_linear_130_4572" x1="20" y1="0" x2="20" y2="40" gradientUnits="userSpaceOnUse">
<stop stop-color="#FF8008"/>
<stop offset="1" stop-color="#FFAF37"/>
</linearGradient>
</defs>
</svg>
