<svg width="20" height="20" viewBox="0 0 20 20" fill="none" xmlns="http://www.w3.org/2000/svg">
<path d="M6.84756 0.536355C4.39047 1.38152 2.26543 3.20188 1.07009 5.47732C0.671649 6.25747 0.33961 7.10264 0.206795 8.01282C-0.258058 10.1582 0.0739799 12.4987 1.07009 14.4491C1.73417 15.7493 2.66388 16.8545 3.85921 17.7647C4.92174 18.6099 6.18348 19.26 7.57804 19.5851C9.30464 20.0402 11.0976 20.0402 12.7578 19.6501C14.2852 19.325 15.7462 18.6099 16.9415 17.5047C18.2033 16.3995 19.0666 14.9692 19.5314 13.3439C20.0627 11.6535 20.1291 9.83317 19.797 8.07783C16.6095 8.07783 13.4219 8.07783 10.2343 8.07783C10.2343 9.37808 10.2343 10.6783 10.2343 11.9786C12.0938 11.9786 13.9532 11.9786 15.7462 11.9786C15.547 13.2138 14.7501 14.3841 13.6875 15.0342C13.0235 15.4893 12.2266 15.7493 11.4297 15.8794C10.6328 16.0094 9.76949 16.0094 8.9726 15.8794C8.17571 15.7493 7.37882 15.3593 6.71474 14.9042C5.65222 14.189 4.78892 13.0838 4.39048 11.8486C3.92562 10.6133 3.92562 9.24806 4.39048 7.9478C4.72251 7.10264 5.18737 6.25747 5.85144 5.60734C6.64833 4.76218 7.71086 4.17707 8.90619 3.98203C9.90231 3.78699 10.8984 3.78699 11.8945 4.11205C12.6914 4.3721 13.4883 4.82719 14.086 5.34729C14.6837 4.76218 15.3477 4.11205 15.9454 3.52694C16.2774 3.20188 16.6095 2.87681 16.9415 2.55175C16.0118 1.70658 14.8829 0.991444 13.6875 0.536355C11.4961 -0.178785 9.03901 -0.178785 6.84756 0.536355Z" fill="white"/>
<path d="M6.84753 0.536306C9.03898 -0.178834 11.4961 -0.178834 13.6875 0.601319C14.8829 1.05641 16.0118 1.70653 16.9415 2.61671C16.6095 2.94178 16.2774 3.26684 15.9454 3.5919C15.3477 4.17702 14.6836 4.82714 14.086 5.41226C13.4883 4.82714 12.6914 4.37206 11.8945 4.17702C10.9648 3.91697 9.90228 3.85195 8.90617 4.04699C7.77724 4.30704 6.71472 4.89216 5.85142 5.67231C5.18734 6.32244 4.65608 7.1676 4.39045 8.01277C3.26152 7.1676 2.199 6.32244 1.07007 5.47727C2.26541 3.20183 4.39045 1.38147 6.84753 0.536306Z" fill="#EA4335"/>
<path d="M0.206795 8.01303C0.406018 7.16787 0.671649 6.3227 1.07009 5.47754C2.19902 6.3227 3.26155 7.16787 4.39048 8.01303C3.92562 9.24828 3.92562 10.6135 4.39048 11.9138C3.26155 12.759 2.19902 13.6041 1.07009 14.4493C0.0739799 12.4339 -0.258058 10.1585 0.206795 8.01303Z" fill="#FBBC05"/>
<path d="M1.07007 14.4491C2.199 13.6039 3.26152 12.7587 4.39045 11.9136C4.7889 13.1488 5.65219 14.254 6.71472 14.9692C7.37879 15.4243 8.17568 15.7493 8.97258 15.9444C9.76947 16.0744 10.5664 16.0744 11.4297 15.9444C12.2266 15.8143 13.0234 15.4893 13.6875 15.0992C14.75 15.9444 15.8126 16.7245 16.9415 17.5697C15.7462 18.6099 14.3516 19.325 12.7578 19.7151C11.0312 20.1052 9.23821 20.1052 7.57802 19.6501C6.24986 19.325 4.98812 18.6749 3.85919 17.8297C2.73026 16.8545 1.73414 15.6843 1.07007 14.4491Z" fill="#34A853"/>
</svg>
