<svg width="24" height="41" viewBox="0 0 24 41" fill="none" xmlns="http://www.w3.org/2000/svg">
<path d="M8.18848 37.7393H9.12598C9.07715 38.1885 8.94857 38.5905 8.74023 38.9453C8.5319 39.3001 8.2373 39.5817 7.85645 39.79C7.47559 39.9951 7.00033 40.0977 6.43066 40.0977C6.014 40.0977 5.63477 40.0195 5.29297 39.8633C4.95443 39.707 4.66309 39.4857 4.41895 39.1992C4.1748 38.9095 3.986 38.5628 3.85254 38.1592C3.72233 37.7523 3.65723 37.2998 3.65723 36.8018V36.0938C3.65723 35.5957 3.72233 35.1449 3.85254 34.7412C3.986 34.3343 4.17643 33.986 4.42383 33.6963C4.67448 33.4066 4.97559 33.1836 5.32715 33.0273C5.67871 32.8711 6.07422 32.793 6.51367 32.793C7.05078 32.793 7.50488 32.8939 7.87598 33.0957C8.24707 33.2975 8.53516 33.5775 8.74023 33.9355C8.94857 34.2904 9.07715 34.7021 9.12598 35.1709H8.18848C8.1429 34.8389 8.05827 34.554 7.93457 34.3164C7.81087 34.0755 7.63509 33.89 7.40723 33.7598C7.17936 33.6296 6.88151 33.5645 6.51367 33.5645C6.19792 33.5645 5.9196 33.6247 5.67871 33.7451C5.44108 33.8656 5.24089 34.0365 5.07812 34.2578C4.91862 34.4792 4.79818 34.7445 4.7168 35.0537C4.63542 35.363 4.59473 35.7064 4.59473 36.084V36.8018C4.59473 37.1501 4.63053 37.4772 4.70215 37.7832C4.77702 38.0892 4.88932 38.3577 5.03906 38.5889C5.1888 38.82 5.37923 39.0023 5.61035 39.1357C5.84147 39.266 6.11491 39.3311 6.43066 39.3311C6.83105 39.3311 7.15007 39.2676 7.3877 39.1406C7.62533 39.0137 7.80436 38.8314 7.9248 38.5938C8.0485 38.3561 8.13639 38.0713 8.18848 37.7393ZM13.3887 39.0967V36.377C13.3887 36.1686 13.3464 35.988 13.2617 35.835C13.1803 35.6787 13.0566 35.5583 12.8906 35.4736C12.7246 35.389 12.5195 35.3467 12.2754 35.3467C12.0475 35.3467 11.8473 35.3857 11.6748 35.4639C11.5055 35.542 11.3721 35.6445 11.2744 35.7715C11.18 35.8984 11.1328 36.0352 11.1328 36.1816H10.2295C10.2295 35.9928 10.2783 35.8057 10.376 35.6201C10.4736 35.4346 10.6136 35.2669 10.7959 35.1172C10.9814 34.9642 11.2028 34.8438 11.46 34.7559C11.7204 34.6647 12.0101 34.6191 12.3291 34.6191C12.7132 34.6191 13.0518 34.6842 13.3447 34.8145C13.641 34.9447 13.8721 35.1416 14.0381 35.4053C14.2074 35.6657 14.292 35.9928 14.292 36.3867V38.8477C14.292 39.0234 14.3066 39.2106 14.3359 39.4092C14.3685 39.6077 14.4157 39.7786 14.4775 39.9219V40H13.5352C13.4896 39.8958 13.4538 39.7575 13.4277 39.585C13.4017 39.4092 13.3887 39.2464 13.3887 39.0967ZM13.5449 36.7969L13.5547 37.4316H12.6416C12.3844 37.4316 12.1549 37.4528 11.9531 37.4951C11.7513 37.5342 11.582 37.5944 11.4453 37.6758C11.3086 37.7572 11.2044 37.8597 11.1328 37.9834C11.0612 38.1038 11.0254 38.2454 11.0254 38.4082C11.0254 38.5742 11.0628 38.7256 11.1377 38.8623C11.2126 38.999 11.3249 39.1081 11.4746 39.1895C11.6276 39.2676 11.8148 39.3066 12.0361 39.3066C12.3128 39.3066 12.557 39.248 12.7686 39.1309C12.9801 39.0137 13.1478 38.8704 13.2715 38.7012C13.3984 38.5319 13.4668 38.3675 13.4766 38.208L13.8623 38.6426C13.8395 38.7793 13.7777 38.9307 13.6768 39.0967C13.5758 39.2627 13.4408 39.4222 13.2715 39.5752C13.1055 39.7249 12.9069 39.8503 12.6758 39.9512C12.4479 40.0488 12.1908 40.0977 11.9043 40.0977C11.5462 40.0977 11.2321 40.0277 10.9619 39.8877C10.695 39.7477 10.4867 39.5605 10.3369 39.3262C10.1904 39.0885 10.1172 38.8232 10.1172 38.5303C10.1172 38.2471 10.1725 37.998 10.2832 37.7832C10.3939 37.5651 10.5534 37.3844 10.7617 37.2412C10.9701 37.0947 11.2207 36.984 11.5137 36.9092C11.8066 36.8343 12.1338 36.7969 12.4951 36.7969H13.5449ZM16.6162 35.5469V40H15.7129V34.7168H16.5918L16.6162 35.5469ZM18.2666 34.6875L18.2617 35.5273C18.1868 35.5111 18.1152 35.5013 18.0469 35.498C17.9818 35.4915 17.9069 35.4883 17.8223 35.4883C17.6139 35.4883 17.43 35.5208 17.2705 35.5859C17.111 35.651 16.9759 35.7422 16.8652 35.8594C16.7546 35.9766 16.6667 36.1165 16.6016 36.2793C16.5397 36.4388 16.499 36.6146 16.4795 36.8066L16.2256 36.9531C16.2256 36.6341 16.2565 36.3346 16.3184 36.0547C16.3835 35.7747 16.4827 35.5273 16.6162 35.3125C16.7497 35.0944 16.9189 34.9251 17.124 34.8047C17.3324 34.681 17.5798 34.6191 17.8662 34.6191C17.9313 34.6191 18.0062 34.6273 18.0908 34.6436C18.1755 34.6566 18.234 34.6712 18.2666 34.6875ZM21.5576 34.7168V35.4102H18.7012V34.7168H21.5576ZM19.668 33.4326H20.5713V38.6914C20.5713 38.8704 20.599 39.0055 20.6543 39.0967C20.7096 39.1878 20.7812 39.248 20.8691 39.2773C20.957 39.3066 21.0514 39.3213 21.1523 39.3213C21.2272 39.3213 21.3053 39.3148 21.3867 39.3018C21.4714 39.2855 21.5348 39.2725 21.5771 39.2627L21.582 40C21.5104 40.0228 21.416 40.0439 21.2988 40.0635C21.1849 40.0863 21.0465 40.0977 20.8838 40.0977C20.6624 40.0977 20.459 40.0537 20.2734 39.9658C20.0879 39.8779 19.9398 39.7314 19.8291 39.5264C19.7217 39.318 19.668 39.0381 19.668 38.6865V33.4326Z" fill="#8F959E"/>
<path d="M7.4355 6.04574C7.4355 3.81137 9.24682 2.00004 11.4812 2.00004C12.5571 1.99548 13.5906 2.41971 14.353 3.17892C15.1154 3.93813 15.5441 4.96978 15.5441 6.04574M8.70407 10.2629H8.74693M14.164 10.2629H14.2069M7.56407 20H15.3812C18.2526 20 20.4554 18.9628 19.8298 14.7886L19.1012 9.13144C18.7154 7.04858 17.3869 6.25144 16.2212 6.25144H6.68979C5.50693 6.25144 4.25551 7.10859 3.80979 9.13144L3.08122 14.7886C2.5498 18.4914 4.69265 20 7.56407 20Z" stroke="#8F959E" stroke-width="1.5" stroke-linecap="round" stroke-linejoin="round"/>
</svg>
