<svg width="41" height="43" viewBox="0 0 41 43" fill="none" xmlns="http://www.w3.org/2000/svg">
<path d="M5.58789 37.7393H6.52539C6.47656 38.1885 6.34798 38.5905 6.13965 38.9453C5.93132 39.3001 5.63672 39.5817 5.25586 39.79C4.875 39.9951 4.39974 40.0977 3.83008 40.0977C3.41341 40.0977 3.03418 40.0195 2.69238 39.8633C2.35384 39.707 2.0625 39.4857 1.81836 39.1992C1.57422 38.9095 1.38542 38.5628 1.25195 38.1592C1.12174 37.7523 1.05664 37.2998 1.05664 36.8018V36.0938C1.05664 35.5957 1.12174 35.1449 1.25195 34.7412C1.38542 34.3343 1.57585 33.986 1.82324 33.6963C2.07389 33.4066 2.375 33.1836 2.72656 33.0273C3.07812 32.8711 3.47363 32.793 3.91309 32.793C4.4502 32.793 4.9043 32.8939 5.27539 33.0957C5.64648 33.2975 5.93457 33.5775 6.13965 33.9355C6.34798 34.2904 6.47656 34.7021 6.52539 35.1709H5.58789C5.54232 34.8389 5.45768 34.554 5.33398 34.3164C5.21029 34.0755 5.03451 33.89 4.80664 33.7598C4.57878 33.6296 4.28092 33.5645 3.91309 33.5645C3.59733 33.5645 3.31901 33.6247 3.07812 33.7451C2.84049 33.8656 2.6403 34.0365 2.47754 34.2578C2.31803 34.4792 2.19759 34.7445 2.11621 35.0537C2.03483 35.363 1.99414 35.7064 1.99414 36.084V36.8018C1.99414 37.1501 2.02995 37.4772 2.10156 37.7832C2.17643 38.0892 2.28874 38.3577 2.43848 38.5889C2.58822 38.82 2.77865 39.0023 3.00977 39.1357C3.24089 39.266 3.51432 39.3311 3.83008 39.3311C4.23047 39.3311 4.54948 39.2676 4.78711 39.1406C5.02474 39.0137 5.20378 38.8314 5.32422 38.5938C5.44792 38.3561 5.53581 38.0713 5.58789 37.7393ZM10.7881 39.0967V36.377C10.7881 36.1686 10.7458 35.988 10.6611 35.835C10.5798 35.6787 10.4561 35.5583 10.29 35.4736C10.124 35.389 9.91895 35.3467 9.6748 35.3467C9.44694 35.3467 9.24674 35.3857 9.07422 35.4639C8.90495 35.542 8.77148 35.6445 8.67383 35.7715C8.57943 35.8984 8.53223 36.0352 8.53223 36.1816H7.62891C7.62891 35.9928 7.67773 35.8057 7.77539 35.6201C7.87305 35.4346 8.01302 35.2669 8.19531 35.1172C8.38086 34.9642 8.60221 34.8438 8.85938 34.7559C9.11979 34.6647 9.40951 34.6191 9.72852 34.6191C10.1126 34.6191 10.4512 34.6842 10.7441 34.8145C11.0404 34.9447 11.2715 35.1416 11.4375 35.4053C11.6068 35.6657 11.6914 35.9928 11.6914 36.3867V38.8477C11.6914 39.0234 11.7061 39.2106 11.7354 39.4092C11.7679 39.6077 11.8151 39.7786 11.877 39.9219V40H10.9346C10.889 39.8958 10.8532 39.7575 10.8271 39.585C10.8011 39.4092 10.7881 39.2464 10.7881 39.0967ZM10.9443 36.7969L10.9541 37.4316H10.041C9.78385 37.4316 9.55436 37.4528 9.35254 37.4951C9.15072 37.5342 8.98145 37.5944 8.84473 37.6758C8.70801 37.7572 8.60384 37.8597 8.53223 37.9834C8.46061 38.1038 8.4248 38.2454 8.4248 38.4082C8.4248 38.5742 8.46224 38.7256 8.53711 38.8623C8.61198 38.999 8.72428 39.1081 8.87402 39.1895C9.02702 39.2676 9.21419 39.3066 9.43555 39.3066C9.71224 39.3066 9.95638 39.248 10.168 39.1309C10.3796 39.0137 10.5472 38.8704 10.6709 38.7012C10.7979 38.5319 10.8662 38.3675 10.876 38.208L11.2617 38.6426C11.2389 38.7793 11.1771 38.9307 11.0762 39.0967C10.9753 39.2627 10.8402 39.4222 10.6709 39.5752C10.5049 39.7249 10.3063 39.8503 10.0752 39.9512C9.84733 40.0488 9.59017 40.0977 9.30371 40.0977C8.94564 40.0977 8.63151 40.0277 8.36133 39.8877C8.0944 39.7477 7.88607 39.5605 7.73633 39.3262C7.58984 39.0885 7.5166 38.8232 7.5166 38.5303C7.5166 38.2471 7.57194 37.998 7.68262 37.7832C7.79329 37.5651 7.9528 37.3844 8.16113 37.2412C8.36947 37.0947 8.62012 36.984 8.91309 36.9092C9.20605 36.8343 9.5332 36.7969 9.89453 36.7969H10.9443ZM15.3242 34.7168V35.4102H12.4678V34.7168H15.3242ZM13.4346 33.4326H14.3379V38.6914C14.3379 38.8704 14.3656 39.0055 14.4209 39.0967C14.4762 39.1878 14.5479 39.248 14.6357 39.2773C14.7236 39.3066 14.818 39.3213 14.9189 39.3213C14.9938 39.3213 15.0719 39.3148 15.1533 39.3018C15.238 39.2855 15.3014 39.2725 15.3438 39.2627L15.3486 40C15.277 40.0228 15.1826 40.0439 15.0654 40.0635C14.9515 40.0863 14.8132 40.0977 14.6504 40.0977C14.429 40.0977 14.2256 40.0537 14.04 39.9658C13.8545 39.8779 13.7064 39.7314 13.5957 39.5264C13.4883 39.318 13.4346 39.0381 13.4346 38.6865V33.4326ZM18.5762 40.0977C18.2083 40.0977 17.8747 40.0358 17.5752 39.9121C17.279 39.7852 17.0234 39.6077 16.8086 39.3799C16.597 39.152 16.4342 38.8818 16.3203 38.5693C16.2064 38.2568 16.1494 37.915 16.1494 37.5439V37.3389C16.1494 36.9092 16.2129 36.5267 16.3398 36.1914C16.4668 35.8529 16.6393 35.5664 16.8574 35.332C17.0755 35.0977 17.3229 34.9202 17.5996 34.7998C17.8763 34.6794 18.1628 34.6191 18.459 34.6191C18.8366 34.6191 19.1621 34.6842 19.4355 34.8145C19.7122 34.9447 19.9385 35.127 20.1143 35.3613C20.29 35.5924 20.4202 35.8659 20.5049 36.1816C20.5895 36.4941 20.6318 36.8359 20.6318 37.207V37.6123H16.6865V36.875H19.7285V36.8066C19.7155 36.5723 19.6667 36.3444 19.582 36.123C19.5007 35.9017 19.3704 35.7194 19.1914 35.5762C19.0124 35.4329 18.7682 35.3613 18.459 35.3613C18.2539 35.3613 18.0651 35.4053 17.8926 35.4932C17.7201 35.5778 17.5719 35.7048 17.4482 35.874C17.3245 36.0433 17.2285 36.25 17.1602 36.4941C17.0918 36.7383 17.0576 37.0199 17.0576 37.3389V37.5439C17.0576 37.7946 17.0918 38.0306 17.1602 38.252C17.2318 38.4701 17.3343 38.6621 17.4678 38.8281C17.6045 38.9941 17.7689 39.1243 17.9609 39.2188C18.1562 39.3132 18.3776 39.3604 18.625 39.3604C18.944 39.3604 19.2142 39.2952 19.4355 39.165C19.6569 39.0348 19.8506 38.8607 20.0166 38.6426L20.5635 39.0771C20.4495 39.2497 20.3047 39.4141 20.1289 39.5703C19.9531 39.7266 19.7367 39.8535 19.4795 39.9512C19.2256 40.0488 18.9245 40.0977 18.5762 40.0977ZM25.1094 34.7168H25.9297V39.8877C25.9297 40.3532 25.8353 40.7503 25.6465 41.0791C25.4577 41.4079 25.194 41.6569 24.8555 41.8262C24.5202 41.9987 24.1328 42.085 23.6934 42.085C23.5111 42.085 23.2962 42.0557 23.0488 41.9971C22.8047 41.9417 22.5638 41.8457 22.3262 41.709C22.0918 41.5755 21.8949 41.3949 21.7354 41.167L22.209 40.6299C22.4303 40.8968 22.6615 41.0824 22.9023 41.1865C23.1465 41.2907 23.3874 41.3428 23.625 41.3428C23.9115 41.3428 24.1589 41.2891 24.3672 41.1816C24.5755 41.0742 24.7367 40.9147 24.8506 40.7031C24.9678 40.4948 25.0264 40.2376 25.0264 39.9316V35.8789L25.1094 34.7168ZM21.4717 37.417V37.3145C21.4717 36.9108 21.5189 36.5446 21.6133 36.2158C21.7109 35.8838 21.8493 35.599 22.0283 35.3613C22.2106 35.1237 22.4303 34.9414 22.6875 34.8145C22.9447 34.6842 23.2344 34.6191 23.5566 34.6191C23.8887 34.6191 24.1784 34.6777 24.4258 34.7949C24.6764 34.9089 24.888 35.0765 25.0605 35.2979C25.2363 35.516 25.3747 35.7796 25.4756 36.0889C25.5765 36.3981 25.6465 36.748 25.6855 37.1387V37.5879C25.6497 37.9753 25.5798 38.3236 25.4756 38.6328C25.3747 38.9421 25.2363 39.2057 25.0605 39.4238C24.888 39.6419 24.6764 39.8096 24.4258 39.9268C24.1751 40.0407 23.8822 40.0977 23.5469 40.0977C23.2311 40.0977 22.9447 40.0309 22.6875 39.8975C22.4336 39.764 22.2155 39.5768 22.0332 39.3359C21.8509 39.0951 21.7109 38.8118 21.6133 38.4863C21.5189 38.1576 21.4717 37.8011 21.4717 37.417ZM22.375 37.3145V37.417C22.375 37.6807 22.401 37.9281 22.4531 38.1592C22.5085 38.3903 22.5915 38.5938 22.7021 38.7695C22.8161 38.9453 22.9609 39.0837 23.1367 39.1846C23.3125 39.2822 23.5225 39.3311 23.7666 39.3311C24.0661 39.3311 24.3135 39.2676 24.5088 39.1406C24.7041 39.0137 24.8587 38.846 24.9727 38.6377C25.0898 38.4294 25.181 38.2031 25.2461 37.959V36.7822C25.2103 36.6032 25.1549 36.4307 25.0801 36.2646C25.0085 36.0954 24.9141 35.9456 24.7969 35.8154C24.6829 35.682 24.5413 35.5762 24.3721 35.498C24.2028 35.4199 24.0042 35.3809 23.7764 35.3809C23.529 35.3809 23.3158 35.4329 23.1367 35.5371C22.9609 35.638 22.8161 35.778 22.7021 35.957C22.5915 36.1328 22.5085 36.3379 22.4531 36.5723C22.401 36.8034 22.375 37.0508 22.375 37.3145ZM27.0625 37.417V37.3047C27.0625 36.9238 27.1178 36.5706 27.2285 36.2451C27.3392 35.9163 27.4987 35.6315 27.707 35.3906C27.9154 35.1465 28.1676 34.9577 28.4639 34.8242C28.7601 34.6875 29.0921 34.6191 29.46 34.6191C29.8311 34.6191 30.1647 34.6875 30.4609 34.8242C30.7604 34.9577 31.0143 35.1465 31.2227 35.3906C31.4342 35.6315 31.5954 35.9163 31.7061 36.2451C31.8167 36.5706 31.8721 36.9238 31.8721 37.3047V37.417C31.8721 37.7979 31.8167 38.151 31.7061 38.4766C31.5954 38.8021 31.4342 39.0869 31.2227 39.3311C31.0143 39.5719 30.762 39.7607 30.4658 39.8975C30.1729 40.0309 29.8408 40.0977 29.4697 40.0977C29.0986 40.0977 28.765 40.0309 28.4688 39.8975C28.1725 39.7607 27.9186 39.5719 27.707 39.3311C27.4987 39.0869 27.3392 38.8021 27.2285 38.4766C27.1178 38.151 27.0625 37.7979 27.0625 37.417ZM27.9658 37.3047V37.417C27.9658 37.6807 27.9967 37.9297 28.0586 38.1641C28.1204 38.3952 28.2132 38.6003 28.3369 38.7793C28.4639 38.9583 28.6217 39.0999 28.8105 39.2041C28.9993 39.305 29.2191 39.3555 29.4697 39.3555C29.7171 39.3555 29.9336 39.305 30.1191 39.2041C30.3079 39.0999 30.4642 38.9583 30.5879 38.7793C30.7116 38.6003 30.8044 38.3952 30.8662 38.1641C30.9313 37.9297 30.9639 37.6807 30.9639 37.417V37.3047C30.9639 37.0443 30.9313 36.7985 30.8662 36.5674C30.8044 36.333 30.71 36.1263 30.583 35.9473C30.4593 35.765 30.3031 35.6217 30.1143 35.5176C29.9287 35.4134 29.7106 35.3613 29.46 35.3613C29.2126 35.3613 28.9945 35.4134 28.8057 35.5176C28.6201 35.6217 28.4639 35.765 28.3369 35.9473C28.2132 36.1263 28.1204 36.333 28.0586 36.5674C27.9967 36.7985 27.9658 37.0443 27.9658 37.3047ZM33.9082 35.5469V40H33.0049V34.7168H33.8838L33.9082 35.5469ZM35.5586 34.6875L35.5537 35.5273C35.4788 35.5111 35.4072 35.5013 35.3389 35.498C35.2738 35.4915 35.1989 35.4883 35.1143 35.4883C34.9059 35.4883 34.722 35.5208 34.5625 35.5859C34.403 35.651 34.2679 35.7422 34.1572 35.8594C34.0465 35.9766 33.9587 36.1165 33.8936 36.2793C33.8317 36.4388 33.791 36.6146 33.7715 36.8066L33.5176 36.9531C33.5176 36.6341 33.5485 36.3346 33.6104 36.0547C33.6755 35.7747 33.7747 35.5273 33.9082 35.3125C34.0417 35.0944 34.2109 34.9251 34.416 34.8047C34.6243 34.681 34.8717 34.6191 35.1582 34.6191C35.2233 34.6191 35.2982 34.6273 35.3828 34.6436C35.4674 34.6566 35.526 34.6712 35.5586 34.6875ZM37.9658 39.4531L39.4355 34.7168H40.4023L38.2832 40.8154C38.2344 40.9456 38.1693 41.0856 38.0879 41.2354C38.0098 41.3883 37.9089 41.5332 37.7852 41.6699C37.6615 41.8066 37.5117 41.9173 37.3359 42.002C37.1634 42.0898 36.9567 42.1338 36.7158 42.1338C36.6442 42.1338 36.5531 42.124 36.4424 42.1045C36.3317 42.085 36.2536 42.0687 36.208 42.0557L36.2031 41.3232C36.2292 41.3265 36.2699 41.3298 36.3252 41.333C36.3838 41.3395 36.4245 41.3428 36.4473 41.3428C36.6523 41.3428 36.8265 41.3151 36.9697 41.2598C37.113 41.2077 37.2334 41.1182 37.3311 40.9912C37.432 40.8675 37.5182 40.6966 37.5898 40.4785L37.9658 39.4531ZM36.8867 34.7168L38.2588 38.8184L38.4932 39.7705L37.8438 40.1025L35.9004 34.7168H36.8867Z" fill="#8F959E"/>
<rect x="11.75" y="2.75" width="7.5" height="7.5" rx="1.25" stroke="#8F959E" stroke-width="1.5"/>
<rect x="11.75" y="13.75" width="7.5" height="7.5" rx="1.25" stroke="#8F959E" stroke-width="1.5"/>
<rect x="22.75" y="13.75" width="7.5" height="7.5" rx="3.75" stroke="#8F959E" stroke-width="1.5"/>
<rect x="22.75" y="2.75" width="7.5" height="7.5" rx="1.25" stroke="#8F959E" stroke-width="1.5"/>
</svg>
