<svg width="27" height="41" viewBox="0 0 27 41" fill="none" xmlns="http://www.w3.org/2000/svg">
<path d="M5.37598 35.7861V36.9287H1.66504V35.7861H5.37598ZM2.09961 32.8906V40H0.634766V32.8906H2.09961ZM6.4209 32.8906V40H4.96094V32.8906H6.4209ZM7.38281 37.4121V37.3096C7.38281 36.9222 7.43815 36.5658 7.54883 36.2402C7.65951 35.9115 7.82064 35.6266 8.03223 35.3857C8.24382 35.1449 8.50423 34.9577 8.81348 34.8242C9.12272 34.6875 9.47754 34.6191 9.87793 34.6191C10.2783 34.6191 10.6348 34.6875 10.9473 34.8242C11.2598 34.9577 11.5218 35.1449 11.7334 35.3857C11.9482 35.6266 12.111 35.9115 12.2217 36.2402C12.3324 36.5658 12.3877 36.9222 12.3877 37.3096V37.4121C12.3877 37.7962 12.3324 38.1527 12.2217 38.4814C12.111 38.807 11.9482 39.0918 11.7334 39.3359C11.5218 39.5768 11.2614 39.764 10.9521 39.8975C10.6429 40.0309 10.2881 40.0977 9.8877 40.0977C9.4873 40.0977 9.13086 40.0309 8.81836 39.8975C8.50911 39.764 8.24707 39.5768 8.03223 39.3359C7.82064 39.0918 7.65951 38.807 7.54883 38.4814C7.43815 38.1527 7.38281 37.7962 7.38281 37.4121ZM8.78906 37.3096V37.4121C8.78906 37.6335 8.80859 37.8402 8.84766 38.0322C8.88672 38.2243 8.94857 38.3936 9.0332 38.54C9.12109 38.6833 9.23503 38.7956 9.375 38.877C9.51497 38.9583 9.68587 38.999 9.8877 38.999C10.083 38.999 10.2507 38.9583 10.3906 38.877C10.5306 38.7956 10.6429 38.6833 10.7275 38.54C10.8122 38.3936 10.874 38.2243 10.9131 38.0322C10.9554 37.8402 10.9766 37.6335 10.9766 37.4121V37.3096C10.9766 37.0947 10.9554 36.8929 10.9131 36.7041C10.874 36.512 10.8105 36.3428 10.7227 36.1963C10.638 36.0465 10.5257 35.9294 10.3857 35.8447C10.2458 35.7601 10.0765 35.7178 9.87793 35.7178C9.67936 35.7178 9.51009 35.7601 9.37012 35.8447C9.2334 35.9294 9.12109 36.0465 9.0332 36.1963C8.94857 36.3428 8.88672 36.512 8.84766 36.7041C8.80859 36.8929 8.78906 37.0947 8.78906 37.3096ZM14.6582 35.8105V40H13.2471V34.7168H14.5703L14.6582 35.8105ZM14.4629 37.1729H14.0723C14.0723 36.805 14.1162 36.4665 14.2041 36.1572C14.2952 35.8447 14.4271 35.5745 14.5996 35.3467C14.7754 35.1156 14.9919 34.9365 15.249 34.8096C15.5062 34.6826 15.804 34.6191 16.1426 34.6191C16.377 34.6191 16.5918 34.6549 16.7871 34.7266C16.9824 34.7949 17.1501 34.904 17.29 35.0537C17.4333 35.2002 17.5439 35.3923 17.6221 35.6299C17.7002 35.8643 17.7393 36.1458 17.7393 36.4746V40H16.333V36.6309C16.333 36.39 16.3005 36.2044 16.2354 36.0742C16.1702 35.944 16.0775 35.8529 15.957 35.8008C15.8398 35.7487 15.6982 35.7227 15.5322 35.7227C15.3499 35.7227 15.1904 35.7601 15.0537 35.835C14.9202 35.9098 14.8096 36.014 14.7217 36.1475C14.6338 36.2777 14.5687 36.4307 14.5264 36.6064C14.484 36.7822 14.4629 36.971 14.4629 37.1729ZM17.6074 37.0117L17.1045 37.0752C17.1045 36.7301 17.1468 36.4095 17.2314 36.1133C17.3193 35.8171 17.4479 35.5566 17.6172 35.332C17.7897 35.1074 18.0029 34.9333 18.2568 34.8096C18.5107 34.6826 18.8037 34.6191 19.1357 34.6191C19.3896 34.6191 19.6208 34.6566 19.8291 34.7314C20.0374 34.8031 20.2148 34.9186 20.3613 35.0781C20.5111 35.2344 20.625 35.4395 20.7031 35.6934C20.7845 35.9473 20.8252 36.2581 20.8252 36.626V40H19.4141V36.626C19.4141 36.3818 19.3815 36.1963 19.3164 36.0693C19.2546 35.9391 19.1634 35.8496 19.043 35.8008C18.9258 35.7487 18.7858 35.7227 18.623 35.7227C18.4538 35.7227 18.3057 35.7568 18.1787 35.8252C18.0518 35.8903 17.946 35.9814 17.8613 36.0986C17.7767 36.2158 17.7132 36.3525 17.6709 36.5088C17.6286 36.6618 17.6074 36.8294 17.6074 37.0117ZM24.3457 40.0977C23.9355 40.0977 23.5677 40.0326 23.2422 39.9023C22.9167 39.7689 22.64 39.585 22.4121 39.3506C22.1875 39.1162 22.015 38.8444 21.8945 38.5352C21.7741 38.2227 21.7139 37.8906 21.7139 37.5391V37.3438C21.7139 36.9434 21.7708 36.5771 21.8848 36.2451C21.9987 35.9131 22.1615 35.625 22.373 35.3809C22.5879 35.1367 22.8483 34.9495 23.1543 34.8193C23.4603 34.6859 23.8053 34.6191 24.1895 34.6191C24.5638 34.6191 24.8958 34.681 25.1855 34.8047C25.4753 34.9284 25.7178 35.1042 25.9131 35.332C26.1117 35.5599 26.2614 35.8333 26.3623 36.1523C26.4632 36.4681 26.5137 36.8197 26.5137 37.207V37.793H22.3145V36.8555H25.1318V36.748C25.1318 36.5527 25.096 36.3786 25.0244 36.2256C24.9561 36.0693 24.8519 35.9456 24.7119 35.8545C24.5719 35.7633 24.3929 35.7178 24.1748 35.7178C23.9893 35.7178 23.8298 35.7585 23.6963 35.8398C23.5628 35.9212 23.4538 36.0352 23.3691 36.1816C23.2878 36.3281 23.2259 36.5007 23.1836 36.6992C23.1445 36.8945 23.125 37.1094 23.125 37.3438V37.5391C23.125 37.7507 23.1543 37.946 23.2129 38.125C23.2747 38.304 23.361 38.4587 23.4717 38.5889C23.5856 38.7191 23.7223 38.82 23.8818 38.8916C24.0446 38.9632 24.2285 38.999 24.4336 38.999C24.6875 38.999 24.9235 38.9502 25.1416 38.8525C25.363 38.7516 25.5534 38.6003 25.7129 38.3984L26.3965 39.1406C26.2858 39.3001 26.1344 39.4531 25.9424 39.5996C25.7536 39.7461 25.5257 39.8665 25.2588 39.9609C24.9919 40.0521 24.6875 40.0977 24.3457 40.0977Z" fill="#FF8300"/>
<path d="M4 12.2969V20C4 21.1046 4.89543 22 6 22H10.4V17.7053C10.4 16.2693 11.5641 15.1053 13 15.1053C14.4359 15.1053 15.6 16.2693 15.6 17.7053V22H20C21.1046 22 22 21.1046 22 20V12.2969C22 11.7852 21.8038 11.2929 21.4519 10.9215L14.4519 3.53257C13.663 2.69989 12.3369 2.69989 11.5481 3.53257L4.54809 10.9215C4.19615 11.2929 4 11.7852 4 12.2969Z" stroke="#FF8300" stroke-width="1.5"/>
</svg>
