<svg width="29" height="41" viewBox="0 0 29 41" fill="none" xmlns="http://www.w3.org/2000/svg">
<path d="M3.65527 37.2119H1.75586V36.4453H3.65527C4.02311 36.4453 4.32096 36.3867 4.54883 36.2695C4.77669 36.1523 4.94271 35.9896 5.04688 35.7812C5.1543 35.5729 5.20801 35.3353 5.20801 35.0684C5.20801 34.8242 5.1543 34.5947 5.04688 34.3799C4.94271 34.165 4.77669 33.9925 4.54883 33.8623C4.32096 33.7288 4.02311 33.6621 3.65527 33.6621H1.97559V40H1.0332V32.8906H3.65527C4.19238 32.8906 4.64648 32.9834 5.01758 33.1689C5.38867 33.3545 5.67025 33.6117 5.8623 33.9404C6.05436 34.266 6.15039 34.6387 6.15039 35.0586C6.15039 35.5143 6.05436 35.9033 5.8623 36.2256C5.67025 36.5479 5.38867 36.7936 5.01758 36.9629C4.64648 37.1289 4.19238 37.2119 3.65527 37.2119ZM8.1084 35.5469V40H7.20508V34.7168H8.08398L8.1084 35.5469ZM9.75879 34.6875L9.75391 35.5273C9.67904 35.5111 9.60742 35.5013 9.53906 35.498C9.47396 35.4915 9.39909 35.4883 9.31445 35.4883C9.10612 35.4883 8.9222 35.5208 8.7627 35.5859C8.60319 35.651 8.4681 35.7422 8.35742 35.8594C8.24674 35.9766 8.15885 36.1165 8.09375 36.2793C8.0319 36.4388 7.99121 36.6146 7.97168 36.8066L7.71777 36.9531C7.71777 36.6341 7.7487 36.3346 7.81055 36.0547C7.87565 35.7747 7.97493 35.5273 8.1084 35.3125C8.24186 35.0944 8.41113 34.9251 8.61621 34.8047C8.82454 34.681 9.07194 34.6191 9.3584 34.6191C9.4235 34.6191 9.49837 34.6273 9.58301 34.6436C9.66764 34.6566 9.72624 34.6712 9.75879 34.6875ZM10.2568 37.417V37.3047C10.2568 36.9238 10.3122 36.5706 10.4229 36.2451C10.5335 35.9163 10.693 35.6315 10.9014 35.3906C11.1097 35.1465 11.362 34.9577 11.6582 34.8242C11.9544 34.6875 12.2865 34.6191 12.6543 34.6191C13.0254 34.6191 13.359 34.6875 13.6553 34.8242C13.9548 34.9577 14.2087 35.1465 14.417 35.3906C14.6286 35.6315 14.7897 35.9163 14.9004 36.2451C15.0111 36.5706 15.0664 36.9238 15.0664 37.3047V37.417C15.0664 37.7979 15.0111 38.151 14.9004 38.4766C14.7897 38.8021 14.6286 39.0869 14.417 39.3311C14.2087 39.5719 13.9564 39.7607 13.6602 39.8975C13.3672 40.0309 13.0352 40.0977 12.6641 40.0977C12.293 40.0977 11.9593 40.0309 11.6631 39.8975C11.3669 39.7607 11.113 39.5719 10.9014 39.3311C10.693 39.0869 10.5335 38.8021 10.4229 38.4766C10.3122 38.151 10.2568 37.7979 10.2568 37.417ZM11.1602 37.3047V37.417C11.1602 37.6807 11.1911 37.9297 11.2529 38.1641C11.3148 38.3952 11.4076 38.6003 11.5312 38.7793C11.6582 38.9583 11.8161 39.0999 12.0049 39.2041C12.1937 39.305 12.4134 39.3555 12.6641 39.3555C12.9115 39.3555 13.1279 39.305 13.3135 39.2041C13.5023 39.0999 13.6585 38.9583 13.7822 38.7793C13.9059 38.6003 13.9987 38.3952 14.0605 38.1641C14.1257 37.9297 14.1582 37.6807 14.1582 37.417V37.3047C14.1582 37.0443 14.1257 36.7985 14.0605 36.5674C13.9987 36.333 13.9043 36.1263 13.7773 35.9473C13.6536 35.765 13.4974 35.6217 13.3086 35.5176C13.123 35.4134 12.9049 35.3613 12.6543 35.3613C12.4069 35.3613 12.1888 35.4134 12 35.5176C11.8145 35.6217 11.6582 35.765 11.5312 35.9473C11.4076 36.1263 11.3148 36.333 11.2529 36.5674C11.1911 36.7985 11.1602 37.0443 11.1602 37.3047ZM17.4053 40H16.502V34.2578C16.502 33.8574 16.5801 33.5189 16.7363 33.2422C16.8926 32.9655 17.1156 32.7555 17.4053 32.6123C17.695 32.4691 18.0384 32.3975 18.4355 32.3975C18.6699 32.3975 18.8994 32.4268 19.124 32.4854C19.3486 32.5407 19.5798 32.6107 19.8174 32.6953L19.666 33.457C19.5163 33.3984 19.3421 33.3431 19.1436 33.291C18.9482 33.2357 18.7334 33.208 18.499 33.208C18.1117 33.208 17.8317 33.2959 17.6592 33.4717C17.4899 33.6442 17.4053 33.9062 17.4053 34.2578V40ZM18.4844 34.7168V35.4102H15.667V34.7168H18.4844ZM20.2617 34.7168V40H19.3584V34.7168H20.2617ZM22.7275 32.5V40H21.8193V32.5H22.7275ZM26.3701 40.0977C26.0023 40.0977 25.6686 40.0358 25.3691 39.9121C25.0729 39.7852 24.8174 39.6077 24.6025 39.3799C24.391 39.152 24.2282 38.8818 24.1143 38.5693C24.0003 38.2568 23.9434 37.915 23.9434 37.5439V37.3389C23.9434 36.9092 24.0068 36.5267 24.1338 36.1914C24.2607 35.8529 24.4333 35.5664 24.6514 35.332C24.8695 35.0977 25.1169 34.9202 25.3936 34.7998C25.6702 34.6794 25.9567 34.6191 26.2529 34.6191C26.6305 34.6191 26.9561 34.6842 27.2295 34.8145C27.5062 34.9447 27.7324 35.127 27.9082 35.3613C28.084 35.5924 28.2142 35.8659 28.2988 36.1816C28.3835 36.4941 28.4258 36.8359 28.4258 37.207V37.6123H24.4805V36.875H27.5225V36.8066C27.5094 36.5723 27.4606 36.3444 27.376 36.123C27.2946 35.9017 27.1644 35.7194 26.9854 35.5762C26.8063 35.4329 26.5622 35.3613 26.2529 35.3613C26.0479 35.3613 25.859 35.4053 25.6865 35.4932C25.514 35.5778 25.3659 35.7048 25.2422 35.874C25.1185 36.0433 25.0225 36.25 24.9541 36.4941C24.8857 36.7383 24.8516 37.0199 24.8516 37.3389V37.5439C24.8516 37.7946 24.8857 38.0306 24.9541 38.252C25.0257 38.4701 25.1283 38.6621 25.2617 38.8281C25.3984 38.9941 25.5628 39.1243 25.7549 39.2188C25.9502 39.3132 26.1715 39.3604 26.4189 39.3604C26.738 39.3604 27.0081 39.2952 27.2295 39.165C27.4508 39.0348 27.6445 38.8607 27.8105 38.6426L28.3574 39.0771C28.2435 39.2497 28.0986 39.4141 27.9229 39.5703C27.7471 39.7266 27.5306 39.8535 27.2734 39.9512C27.0195 40.0488 26.7184 40.0977 26.3701 40.0977Z" fill="#8F959E"/>
<path d="M18.3929 7C18.3929 9.32773 16.4465 11.25 14 11.25C11.5535 11.25 9.60714 9.32773 9.60714 7C9.60714 4.67227 11.5535 2.75 14 2.75C16.4465 2.75 18.3929 4.67227 18.3929 7ZM14 14.625C15.0956 14.625 16.1393 14.3993 17.0848 14H17.6C20.1871 14 22.25 16.0356 22.25 18.5V20.125C22.25 20.7262 21.742 21.25 21.0714 21.25H6.92857C6.258 21.25 5.75 20.7262 5.75 20.125V18.5C5.75 16.0356 7.81291 14 10.4 14H10.9157C11.8634 14.3989 12.9035 14.625 14 14.625Z" stroke="#8F959E" stroke-width="1.5"/>
</svg>
