<svg width="34" height="38" viewBox="0 0 34 38" fill="none" xmlns="http://www.w3.org/2000/svg">
<path d="M2.06348 36.0625L3.4209 31.7168H4.0166L3.89941 32.5811L2.51758 37H1.93652L2.06348 36.0625ZM1.15039 31.7168L2.30762 36.1113L2.39062 37H1.78027L0.24707 31.7168H1.15039ZM5.31543 36.0771L6.41895 31.7168H7.31738L5.78418 37H5.17871L5.31543 36.0771ZM4.14844 31.7168L5.47656 35.9893L5.62793 37H5.05176L3.63086 32.5713L3.51367 31.7168H4.14844ZM9.22656 31.7168V37H8.31836V31.7168H9.22656ZM8.25 30.3154C8.25 30.1689 8.29395 30.0452 8.38184 29.9443C8.47298 29.8434 8.60645 29.793 8.78223 29.793C8.95475 29.793 9.08659 29.8434 9.17773 29.9443C9.27214 30.0452 9.31934 30.1689 9.31934 30.3154C9.31934 30.4554 9.27214 30.5758 9.17773 30.6768C9.08659 30.7744 8.95475 30.8232 8.78223 30.8232C8.60645 30.8232 8.47298 30.7744 8.38184 30.6768C8.29395 30.5758 8.25 30.4554 8.25 30.3154ZM13.7529 35.5986C13.7529 35.4684 13.7236 35.348 13.665 35.2373C13.6097 35.1234 13.4941 35.0208 13.3184 34.9297C13.1458 34.8353 12.8854 34.7539 12.5371 34.6855C12.2441 34.6237 11.9788 34.5505 11.7412 34.4658C11.5068 34.3812 11.3066 34.2786 11.1406 34.1582C10.9779 34.0378 10.8525 33.8962 10.7646 33.7334C10.6768 33.5706 10.6328 33.3802 10.6328 33.1621C10.6328 32.9538 10.6784 32.7568 10.7695 32.5713C10.8639 32.3857 10.9958 32.2214 11.165 32.0781C11.3376 31.9349 11.5443 31.8226 11.7852 31.7412C12.026 31.6598 12.2946 31.6191 12.5908 31.6191C13.014 31.6191 13.3753 31.694 13.6748 31.8438C13.9743 31.9935 14.2038 32.1937 14.3633 32.4443C14.5228 32.6917 14.6025 32.9668 14.6025 33.2695H13.6992C13.6992 33.123 13.6553 32.9814 13.5674 32.8447C13.4827 32.7048 13.3574 32.5892 13.1914 32.498C13.0286 32.4069 12.8285 32.3613 12.5908 32.3613C12.3402 32.3613 12.1367 32.4004 11.9805 32.4785C11.8275 32.5534 11.7152 32.6494 11.6436 32.7666C11.5752 32.8838 11.541 33.0075 11.541 33.1377C11.541 33.2354 11.5573 33.3232 11.5898 33.4014C11.6257 33.4762 11.6875 33.5462 11.7754 33.6113C11.8633 33.6732 11.987 33.7318 12.1465 33.7871C12.306 33.8424 12.5094 33.8978 12.7568 33.9531C13.1898 34.0508 13.5462 34.168 13.8262 34.3047C14.1061 34.4414 14.3145 34.609 14.4512 34.8076C14.5879 35.0062 14.6562 35.2471 14.6562 35.5303C14.6562 35.7614 14.6074 35.973 14.5098 36.165C14.4154 36.3571 14.277 36.5231 14.0947 36.6631C13.9157 36.7998 13.7008 36.9072 13.4502 36.9854C13.2028 37.0602 12.9245 37.0977 12.6152 37.0977C12.1497 37.0977 11.7559 37.0146 11.4336 36.8486C11.1113 36.6826 10.8672 36.4678 10.7012 36.2041C10.5352 35.9404 10.4521 35.6621 10.4521 35.3691H11.3604C11.3734 35.6165 11.445 35.8135 11.5752 35.96C11.7054 36.1032 11.8649 36.2057 12.0537 36.2676C12.2425 36.3262 12.4297 36.3555 12.6152 36.3555C12.8626 36.3555 13.0693 36.3229 13.2354 36.2578C13.4046 36.1927 13.5332 36.1032 13.6211 35.9893C13.709 35.8753 13.7529 35.7451 13.7529 35.5986ZM16.7461 29.5V37H15.8428V29.5H16.7461ZM16.5312 34.1582L16.1553 34.1436C16.1585 33.7822 16.2122 33.4486 16.3164 33.1426C16.4206 32.8333 16.5671 32.5648 16.7559 32.3369C16.9447 32.109 17.1693 31.9333 17.4297 31.8096C17.6934 31.6826 17.9847 31.6191 18.3037 31.6191C18.5641 31.6191 18.7985 31.6549 19.0068 31.7266C19.2152 31.7949 19.3926 31.9056 19.5391 32.0586C19.6888 32.2116 19.8027 32.4102 19.8809 32.6543C19.959 32.8952 19.998 33.1898 19.998 33.5381V37H19.0898V33.5283C19.0898 33.2516 19.0492 33.0303 18.9678 32.8643C18.8864 32.695 18.7676 32.5729 18.6113 32.498C18.4551 32.4199 18.263 32.3809 18.0352 32.3809C17.8105 32.3809 17.6055 32.4281 17.4199 32.5225C17.2376 32.6169 17.0798 32.7471 16.9463 32.9131C16.8161 33.0791 16.7135 33.2695 16.6387 33.4844C16.5671 33.696 16.5312 33.9206 16.5312 34.1582ZM22.332 29.5V37H21.4238V29.5H22.332ZM24.7637 31.7168V37H23.8555V31.7168H24.7637ZM23.7871 30.3154C23.7871 30.1689 23.8311 30.0452 23.9189 29.9443C24.0101 29.8434 24.1436 29.793 24.3193 29.793C24.4919 29.793 24.6237 29.8434 24.7148 29.9443C24.8092 30.0452 24.8564 30.1689 24.8564 30.3154C24.8564 30.4554 24.8092 30.5758 24.7148 30.6768C24.6237 30.7744 24.4919 30.8232 24.3193 30.8232C24.1436 30.8232 24.0101 30.7744 23.9189 30.6768C23.8311 30.5758 23.7871 30.4554 23.7871 30.3154ZM29.29 35.5986C29.29 35.4684 29.2607 35.348 29.2021 35.2373C29.1468 35.1234 29.0312 35.0208 28.8555 34.9297C28.6829 34.8353 28.4225 34.7539 28.0742 34.6855C27.7812 34.6237 27.516 34.5505 27.2783 34.4658C27.0439 34.3812 26.8438 34.2786 26.6777 34.1582C26.515 34.0378 26.3896 33.8962 26.3018 33.7334C26.2139 33.5706 26.1699 33.3802 26.1699 33.1621C26.1699 32.9538 26.2155 32.7568 26.3066 32.5713C26.401 32.3857 26.5329 32.2214 26.7021 32.0781C26.8747 31.9349 27.0814 31.8226 27.3223 31.7412C27.5632 31.6598 27.8317 31.6191 28.1279 31.6191C28.5511 31.6191 28.9124 31.694 29.2119 31.8438C29.5114 31.9935 29.7409 32.1937 29.9004 32.4443C30.0599 32.6917 30.1396 32.9668 30.1396 33.2695H29.2363C29.2363 33.123 29.1924 32.9814 29.1045 32.8447C29.0199 32.7048 28.8945 32.5892 28.7285 32.498C28.5658 32.4069 28.3656 32.3613 28.1279 32.3613C27.8773 32.3613 27.6738 32.4004 27.5176 32.4785C27.3646 32.5534 27.2523 32.6494 27.1807 32.7666C27.1123 32.8838 27.0781 33.0075 27.0781 33.1377C27.0781 33.2354 27.0944 33.3232 27.127 33.4014C27.1628 33.4762 27.2246 33.5462 27.3125 33.6113C27.4004 33.6732 27.5241 33.7318 27.6836 33.7871C27.8431 33.8424 28.0465 33.8978 28.2939 33.9531C28.7269 34.0508 29.0833 34.168 29.3633 34.3047C29.6432 34.4414 29.8516 34.609 29.9883 34.8076C30.125 35.0062 30.1934 35.2471 30.1934 35.5303C30.1934 35.7614 30.1445 35.973 30.0469 36.165C29.9525 36.3571 29.8141 36.5231 29.6318 36.6631C29.4528 36.7998 29.238 36.9072 28.9873 36.9854C28.7399 37.0602 28.4616 37.0977 28.1523 37.0977C27.6868 37.0977 27.293 37.0146 26.9707 36.8486C26.6484 36.6826 26.4043 36.4678 26.2383 36.2041C26.0723 35.9404 25.9893 35.6621 25.9893 35.3691H26.8975C26.9105 35.6165 26.9821 35.8135 27.1123 35.96C27.2425 36.1032 27.402 36.2057 27.5908 36.2676C27.7796 36.3262 27.9668 36.3555 28.1523 36.3555C28.3997 36.3555 28.6064 36.3229 28.7725 36.2578C28.9417 36.1927 29.0703 36.1032 29.1582 35.9893C29.2461 35.8753 29.29 35.7451 29.29 35.5986ZM33.5918 31.7168V32.4102H30.7354V31.7168H33.5918ZM31.7021 30.4326H32.6055V35.6914C32.6055 35.8704 32.6331 36.0055 32.6885 36.0967C32.7438 36.1878 32.8154 36.248 32.9033 36.2773C32.9912 36.3066 33.0856 36.3213 33.1865 36.3213C33.2614 36.3213 33.3395 36.3148 33.4209 36.3018C33.5055 36.2855 33.569 36.2725 33.6113 36.2627L33.6162 37C33.5446 37.0228 33.4502 37.0439 33.333 37.0635C33.2191 37.0863 33.0807 37.0977 32.918 37.0977C32.6966 37.0977 32.4932 37.0537 32.3076 36.9658C32.1221 36.8779 31.974 36.7314 31.8633 36.5264C31.7559 36.318 31.7021 36.0381 31.7021 35.6865V30.4326Z" fill="#8F959E"/>
<path d="M17.4458 1.8017C17.1791 2.00154 16.8125 2.0014 16.5459 1.80136C15.1823 0.778088 13.417 0.481235 11.8011 1.00138L17.4458 1.8017ZM17.4458 1.8017C18.8101 0.779496 20.5752 0.482661 22.1916 1.00153C25.2022 1.97193 26.3996 5.29001 25.4167 8.35779C24.8562 9.97039 23.9391 11.4316 22.7359 12.6306C20.9875 14.3294 19.0648 15.8345 17.0006 17.12M17.4458 1.8017L17.0006 17.12M17.0006 17.12C14.9364 15.8345 13.0137 14.3294 11.2653 12.6306C10.0621 11.4316 9.14502 9.97037 8.58451 8.35776C7.60103 5.28803 8.79167 1.97121 11.801 1.00144L17.0006 17.12Z" stroke="#8F959E" stroke-width="1.5" stroke-linecap="round" stroke-linejoin="round"/>
</svg>
