<svg width="25" height="25" viewBox="0 0 25 25" fill="none" xmlns="http://www.w3.org/2000/svg">
<path fill-rule="evenodd" clip-rule="evenodd" d="M7.7982 22.3962H16.4939C19.6879 22.3962 22.1383 21.2425 21.4424 16.5992L20.6319 10.3062C20.2028 7.98927 18.725 7.10254 17.4282 7.10254H6.82566C5.50986 7.10254 4.1178 8.05602 3.62199 10.3062L2.81154 16.5992C2.2204 20.7181 4.60407 22.3962 7.7982 22.3962Z" stroke="#FF8300" stroke-width="1.5" stroke-linecap="round" stroke-linejoin="round"/>
<path d="M7.65515 6.87347C7.65515 4.38798 9.67004 2.37309 12.1555 2.37309C13.3524 2.36801 14.502 2.83992 15.3501 3.68446C16.1982 4.52899 16.675 5.67659 16.675 6.87347" stroke="#FF8300" stroke-width="1.5" stroke-linecap="round" stroke-linejoin="round"/>
<path d="M9.06628 11.5645H9.11396" stroke="#FF8300" stroke-width="1.5" stroke-linecap="round" stroke-linejoin="round"/>
<path d="M15.1399 11.5645H15.1876" stroke="#FF8300" stroke-width="1.5" stroke-linecap="round" stroke-linejoin="round"/>
</svg>
