<svg width="25" height="25" viewBox="0 0 25 25" fill="none" xmlns="http://www.w3.org/2000/svg">
<path d="M12.2499 13.8595V14.2505H11.7499V13.0005C11.7499 12.8627 11.8621 12.7505 11.9999 12.7505C13.5171 12.7505 14.7499 11.5177 14.7499 10.0005C14.7499 8.48327 13.5171 7.25049 11.9999 7.25049C10.7426 7.25049 9.68064 8.09704 9.35367 9.25049H8.83686C9.17549 7.81722 10.4632 6.75049 11.9999 6.75049C13.7947 6.75049 15.2499 8.2057 15.2499 10.0005C15.2499 11.5076 14.2158 12.7698 12.8118 13.1334L12.2499 13.279V13.8595ZM11.9999 1.25049C6.06266 1.25049 1.24988 6.06327 1.24988 12.0005C1.24988 17.9377 6.06266 22.7505 11.9999 22.7505C17.9371 22.7505 22.7499 17.9377 22.7499 12.0005C22.7499 6.06327 17.9371 1.25049 11.9999 1.25049ZM11.7499 17.2505V16.7505H12.2499V17.2505H11.7499Z" stroke="#FF8300" stroke-width="1.5"/>
</svg>
