<svg width="16" height="21" viewBox="0 0 16 21" fill="none" xmlns="http://www.w3.org/2000/svg">
<path d="M14.8906 13.2956L14.8906 13.2956L14.8926 13.2989C15.1761 13.7641 15.2248 14.3082 15.0379 14.8042C14.8467 15.3117 14.4563 15.6901 13.9554 15.8547L13.9554 15.8547L13.9512 15.8561C12.0258 16.5012 9.99811 16.8197 7.96773 16.8197C5.93742 16.8197 3.91097 16.5012 1.98757 15.8469L1.98606 15.8464C1.40569 15.6503 1.00998 15.262 0.850136 14.8157L0.85016 14.8157L0.848002 14.8098C0.676556 14.3435 0.725159 13.8148 1.03506 13.2948C1.0354 13.2942 1.03574 13.2936 1.03608 13.2931L2.07772 11.5708L2.0778 11.5708L2.0838 11.5605C2.23832 11.2956 2.36263 10.9523 2.44778 10.6391C2.53278 10.3265 2.59937 9.96814 2.59937 9.66336V7.04857C2.59937 4.94937 3.82078 3.12451 5.594 2.24245L5.80149 2.13924L5.91458 1.93697C6.32133 1.20951 7.08569 0.75 7.93673 0.75C8.80453 0.75 9.54655 1.19471 9.95027 1.90898L10.0666 2.11488L10.2801 2.21677C12.0872 3.07945 13.3361 4.92104 13.3361 7.04857V9.66336C13.3361 9.96814 13.4027 10.3264 13.4875 10.6396C13.5727 10.9545 13.6961 11.2969 13.8473 11.5632L13.8521 11.5716L13.8571 11.58L14.8906 13.2956Z" stroke="#FF8300" stroke-width="1.5"/>
<path d="M6.15083 19.0807C6.18864 19.124 6.22797 19.1649 6.26864 19.2031L6.28235 19.2159L6.2954 19.2294C6.40245 19.3404 6.52151 19.4395 6.6497 19.5256C6.47057 19.5139 6.29242 19.5002 6.11551 19.4847L6.15083 19.0807ZM6.15083 19.0807L6.17944 18.7374C6.76854 18.7891 7.36798 18.8201 7.96742 18.8201C8.55652 18.8201 9.14562 18.7891 9.72439 18.7374L6.15083 19.0807Z" stroke="#FF8300" stroke-width="1.5"/>
</svg>
