<svg width="25" height="25" viewBox="0 0 25 25" fill="none" xmlns="http://www.w3.org/2000/svg">
<path d="M21.25 6.935V6.93513C21.2505 10.0778 20.4061 13.1636 18.804 15.8728C17.3817 18.2781 15.408 20.3089 13.0496 21.8031C12.7136 22.016 12.2864 22.016 11.9504 21.8031C9.59197 20.3089 7.61828 18.2781 6.19595 15.8728C4.59385 13.1636 3.74947 10.0778 3.75 6.93513V6.935C3.75 6.78512 3.83842 6.64936 3.9755 6.58876L11.9946 3.04348C12.3165 2.90116 12.6835 2.90116 13.0054 3.04348L21.0245 6.58875C21.1616 6.64936 21.25 6.78512 21.25 6.935Z" stroke="#FF8300" stroke-width="1.5"/>
<path d="M14.963 10.4443H10.0371C9.64843 10.4443 9.33337 10.788 9.33337 11.212V13.8989C9.33337 14.3229 9.64843 14.6666 10.0371 14.6666H14.963C15.3516 14.6666 15.6667 14.3229 15.6667 13.8989V11.212C15.6667 10.788 15.3516 10.4443 14.963 10.4443Z" stroke="#FF8300" stroke-width="1.5" stroke-linecap="round" stroke-linejoin="round"/>
<path d="M10.3889 10.444V9.0366C10.3889 8.06499 11.3341 7.27734 12.5 7.27734C13.666 7.27734 14.6111 8.06499 14.6111 9.0366V10.444" stroke="#FF8300" stroke-width="1.5" stroke-linecap="round" stroke-linejoin="round"/>
</svg>
