<svg width="25" height="25" viewBox="0 0 25 25" fill="none" xmlns="http://www.w3.org/2000/svg">
<path d="M17.1071 7.29134C17.1071 9.73414 15.0648 11.7497 12.5 11.7497C9.93517 11.7497 7.89286 9.73414 7.89286 7.29134C7.89286 4.84854 9.93517 2.83301 12.5 2.83301C15.0648 2.83301 17.1071 4.84854 17.1071 7.29134ZM12.5 15.2028C13.6392 15.2028 14.7243 14.9676 15.707 14.5518H16.25C18.9613 14.5518 21.125 16.6853 21.125 19.2705V20.9632C21.125 21.6075 20.581 22.1663 19.8661 22.1663H5.13393C4.41899 22.1663 3.875 21.6075 3.875 20.9632V19.2705C3.875 16.6853 6.03869 14.5518 8.75 14.5518H9.29355C10.2786 14.9673 11.3599 15.2028 12.5 15.2028Z" stroke="#FF8300" stroke-width="1.5"/>
</svg>
