<svg width="25" height="25" viewBox="0 0 25 25" fill="none" xmlns="http://www.w3.org/2000/svg">
<path d="M17.375 4.625H15.3306C15.0221 3.29883 13.9142 2.25 12.5 2.25C11.0858 2.25 9.97795 3.29883 9.6694 4.625H7.625C6.25033 4.625 5.25 5.82493 5.25 7.15625V20.2188C5.25 21.5501 6.25033 22.75 7.625 22.75H17.375C18.7497 22.75 19.75 21.5501 19.75 20.2188V7.15625C19.75 5.82493 18.7497 4.625 17.375 4.625ZM9.25 17.9844C9.24919 17.9844 9.24919 17.9845 9.24762 17.9838C9.24526 17.9827 9.23821 17.9788 9.22898 17.9687C9.21016 17.948 9.1875 17.9065 9.1875 17.8438C9.1875 17.781 9.21016 17.7395 9.22898 17.7188C9.23821 17.7087 9.24526 17.7048 9.24762 17.7037C9.24899 17.7031 9.24917 17.7031 9.24973 17.7031L9.25 17.7031L9.25027 17.7031C9.25083 17.7031 9.25101 17.7031 9.25238 17.7037C9.25474 17.7048 9.26179 17.7087 9.27102 17.7188C9.28984 17.7395 9.3125 17.781 9.3125 17.8438C9.3125 17.9065 9.28984 17.948 9.27102 17.9687C9.26179 17.9788 9.25474 17.9827 9.25238 17.9838C9.25101 17.9844 9.25083 17.9844 9.25027 17.9844L9.25 17.9844ZM9.25 14.4219C9.2499 14.4219 9.24981 14.4219 9.24973 14.4219C9.24917 14.4219 9.24899 14.4219 9.24762 14.4213C9.24526 14.4202 9.23821 14.4163 9.22898 14.4062C9.21016 14.3855 9.1875 14.344 9.1875 14.2812C9.1875 14.2185 9.21016 14.177 9.22898 14.1563C9.23821 14.1462 9.24526 14.1423 9.24762 14.1412C9.24899 14.1406 9.24917 14.1406 9.24973 14.1406C9.24981 14.1406 9.2499 14.1406 9.25 14.1406C9.2501 14.1406 9.25019 14.1406 9.25027 14.1406C9.25083 14.1406 9.25101 14.1406 9.25238 14.1412C9.25474 14.1423 9.26179 14.1462 9.27102 14.1563C9.28984 14.177 9.3125 14.2185 9.3125 14.2812C9.3125 14.344 9.28984 14.3855 9.27102 14.4062C9.26179 14.4163 9.25474 14.4202 9.25238 14.4213C9.25101 14.4219 9.25083 14.4219 9.25027 14.4219C9.25019 14.4219 9.2501 14.4219 9.25 14.4219ZM9.25 10.8594C9.2499 10.8594 9.24981 10.8594 9.24973 10.8594C9.24917 10.8594 9.24899 10.8594 9.24762 10.8588C9.24526 10.8577 9.23821 10.8538 9.22898 10.8437C9.21016 10.823 9.1875 10.7815 9.1875 10.7188C9.1875 10.656 9.21016 10.6145 9.22898 10.5938C9.23821 10.5837 9.24526 10.5798 9.24762 10.5787C9.24919 10.578 9.24919 10.5781 9.25 10.5781C9.25081 10.5781 9.25081 10.578 9.25238 10.5787C9.25474 10.5798 9.26179 10.5837 9.27102 10.5938C9.28984 10.6145 9.3125 10.656 9.3125 10.7188C9.3125 10.7815 9.28984 10.823 9.27102 10.8437C9.26179 10.8538 9.25474 10.8577 9.25238 10.8588C9.25101 10.8594 9.25083 10.8594 9.25027 10.8594C9.25019 10.8594 9.2501 10.8594 9.25 10.8594ZM12.5 5.23438C12.5001 5.23438 12.5002 5.23437 12.5003 5.23437C12.5008 5.23436 12.501 5.23436 12.5024 5.23499C12.5047 5.23608 12.5118 5.23995 12.521 5.25008C12.5398 5.2707 12.5625 5.3123 12.5625 5.375C12.5625 5.4377 12.5398 5.4793 12.521 5.49992C12.5118 5.51005 12.5047 5.51392 12.5024 5.51501C12.501 5.51564 12.5008 5.51564 12.5003 5.51563C12.5002 5.51563 12.5001 5.51562 12.5 5.51562C12.4999 5.51562 12.4998 5.51563 12.4997 5.51563C12.4992 5.51564 12.499 5.51564 12.4976 5.51501C12.4953 5.51392 12.4882 5.51005 12.479 5.49992C12.4602 5.4793 12.4375 5.4377 12.4375 5.375C12.4375 5.3123 12.4602 5.2707 12.479 5.25008C12.4882 5.23995 12.4953 5.23608 12.4976 5.23499C12.499 5.23436 12.4992 5.23436 12.4997 5.23437C12.4998 5.23437 12.4999 5.23438 12.5 5.23438Z" stroke="#FF8300" stroke-width="1.5"/>
</svg>
